<svg xmlns="http://www.w3.org/2000/svg" version="1.1" xmlns:xlink="http://www.w3.org/1999/xlink" xmlns:svgjs="http://svgjs.dev/svgjs" width="1000" height="202" viewBox="0 0 1000 202"><g transform="matrix(1,0,0,1,-0.6060606060606233,-0.023613324268467295)"><svg viewBox="0 0 396 80" data-background-color="#ffffff" preserveAspectRatio="xMidYMid meet" height="202" width="1000" xmlns="http://www.w3.org/2000/svg" xmlns:xlink="http://www.w3.org/1999/xlink"><g id="tight-bounds" transform="matrix(1,0,0,1,0.2400000000000091,0.009351811591471915)"><svg viewBox="0 0 395.52 79.98129637681704" height="79.98129637681704" width="395.52"><g><svg viewBox="0 0 522.8182295464669 105.72330038571687" height="79.98129637681704" width="395.52"><g><rect width="3.459959252479643" height="91.8002608269611" x="114.78078533985206" y="6.961519779377888" fill="#636365" opacity="1" stroke-width="0" stroke="transparent" fill-opacity="1" class="rect-o-0" data-fill-palette-color="primary" rx="1%" id="o-0" data-palette-color="#636365"></rect></g><g transform="matrix(1,0,0,1,127.2982295464669,14.611541514957977)"><svg viewBox="0 0 395.52 76.50021735580091" height="76.50021735580091" width="395.52"><g><svg viewBox="0 0 395.52 76.50021735580091" height="76.50021735580091" width="395.52"><g><svg viewBox="0 0 395.52 38.366818118466895" height="38.366818118466895" width="395.52"><g transform="matrix(1,0,0,1,0,0)"><svg width="395.52" viewBox="1.100000023841858 -33.900001525878906 358.7200012207031 34.80000305175781" height="38.366818118466895" data-palette-color="#636365"><path d="M13.4 0L1.1 0 1.1-0.5 2.15-0.9Q3.75-1.55 3.75-3.45L3.75-3.45 3.75-29.55Q3.75-31.55 2.15-32.1L2.15-32.1 1.1-32.5 1.1-33 14.3-33Q19.6-33 23.43-31.03 27.25-29.05 29.33-25.38 31.4-21.7 31.4-16.55L31.4-16.55Q31.4-11.3 29.15-7.6 26.9-3.9 22.88-1.95 18.85 0 13.4 0L13.4 0ZM11.25-32L11.25-1 13.4-1Q17-1 19.2-2.43 21.4-3.85 22.43-7.23 23.45-10.6 23.45-16.5L23.45-16.5Q23.45-22.4 22.43-25.78 21.4-29.15 19.25-30.58 17.1-32 13.6-32L13.6-32 11.25-32ZM54.7 0L40.65 0 40.65-0.5 42.15-0.9Q43.9-1.4 43.9-3.4L43.9-3.4 43.9-12.9 35.65-29.7Q35.2-30.7 34.82-31.2 34.45-31.7 33.7-32.05L33.7-32.05 32.8-32.5 32.8-33 46.2-33 46.2-32.5 45.3-32.15Q44.2-31.7 44.1-30.93 44-30.15 44.5-29L44.5-29 50.4-15.9 57-29.5Q57.4-30.3 57.32-31.15 57.25-32 56.25-32.25L56.25-32.25 55.55-32.5 55.55-33 61.55-33 61.55-32.5 60.6-32.15Q59.65-31.8 59.2-31.18 58.75-30.55 58.3-29.6L58.3-29.6 51.45-15.2 51.45-3.4Q51.45-2.4 51.82-1.78 52.2-1.15 53.15-0.9L53.15-0.9 54.7-0.5 54.7 0ZM87.3 0L63 0 63-0.5 64.05-0.9Q65.09-1.3 65.37-1.88 65.65-2.45 65.65-3.45L65.65-3.45 65.65-29.55Q65.65-30.55 65.34-31.15 65.05-31.75 64.05-32.1L64.05-32.1 63-32.5 63-33 75.75-33 75.75-32.5 74.84-32.1Q73.9-31.75 73.55-31.13 73.2-30.5 73.2-29.5L73.2-29.5 73.2-1 80.9-1Q82.75-1 83.62-1.9 84.5-2.8 85.3-4.5L85.3-4.5 87.25-8.7 87.75-8.7 87.3 0ZM96.19 0L89.29 0 89.29-0.5 90.54-0.95Q91.54-1.35 92.09-1.93 92.64-2.5 92.99-3.55L92.99-3.55 103.29-33.1 107.54-33.1 117.69-3.35Q118.09-2.25 118.59-1.68 119.09-1.1 120.14-0.7L120.14-0.7 120.74-0.5 120.74 0 108.04 0 108.04-0.5 108.79-0.75Q109.84-1.15 110.07-1.88 110.29-2.6 109.99-3.6L109.99-3.6 107.64-10.8 96.54-10.8 94.14-3.75Q93.79-2.65 93.92-2 94.04-1.35 95.09-0.95L95.09-0.95 96.19-0.5 96.19 0ZM102.29-27.35L96.89-11.8 107.34-11.8 102.29-27.35ZM130.74 0L123.14 0 123.14-0.5 124.79-1Q125.69-1.25 126.09-1.98 126.49-2.7 126.49-3.7L126.49-3.7 126.49-27.75Q125.94-28.95 125.62-29.55 125.29-30.15 124.89-30.58 124.49-31 123.79-31.65L123.79-31.65 122.94-32.5 122.94-33 131.79-33 148.39-10.35 148.39-29.2Q148.39-30.2 148.07-31 147.74-31.8 146.74-32.05L146.74-32.05 145.09-32.5 145.09-33 152.24-33 152.24-32.5 150.89-32.05Q149.99-31.75 149.79-31 149.59-30.25 149.59-29.25L149.59-29.25 149.59 0.15 146.79 0.15 127.69-26.1 127.69-3.7Q127.69-2.7 127.99-2 128.29-1.3 129.24-1L129.24-1 130.74-0.5 130.74 0ZM182.84 0.15L179.14 0.15 168.44-29.65Q168.09-30.65 167.51-31.23 166.94-31.8 165.94-32.1L165.94-32.1 164.74-32.5 164.74-33 179.14-33 179.14-32.5 177.59-32.05Q176.44-31.75 176.31-31 176.19-30.25 176.54-29.15L176.54-29.15 183.94-7.2 191.39-29.2Q191.79-30.35 191.76-31.1 191.74-31.85 190.59-32.15L190.59-32.15 189.29-32.5 189.29-33 196.29-33 196.29-32.5 194.94-32.1Q193.99-31.85 193.59-31.23 193.19-30.6 192.84-29.6L192.84-29.6 182.84 0.15ZM210.48 0L197.63 0 197.63-0.5 198.63-0.9Q199.63-1.25 199.96-1.85 200.28-2.45 200.28-3.45L200.28-3.45 200.28-29.55Q200.28-30.55 199.98-31.15 199.68-31.75 198.63-32.1L198.63-32.1 197.63-32.5 197.63-33 210.48-33 210.48-32.5 209.48-32.1Q208.48-31.75 208.16-31.15 207.83-30.55 207.83-29.55L207.83-29.55 207.83-3.45Q207.83-2.45 208.16-1.88 208.48-1.3 209.48-0.9L209.48-0.9 210.48-0.5 210.48 0ZM229.88 0.9L229.88 0.9Q225.03 0.9 221.11-1.07 217.18-3.05 214.88-6.95 212.58-10.85 212.58-16.5L212.58-16.5Q212.58-20.8 213.98-24.05 215.38-27.3 217.81-29.5 220.23-31.7 223.41-32.8 226.58-33.9 230.13-33.9L230.13-33.9Q232.98-33.9 235.38-33.25 237.78-32.6 239.88-31.45L239.88-31.45 240.08-25.3 239.58-25.3 237.08-29.3Q236.58-30.25 235.98-31.03 235.38-31.8 234.48-32.2L234.48-32.2Q233.73-32.55 233.01-32.73 232.28-32.9 231.18-32.9L231.18-32.9Q228.28-32.9 225.91-31.35 223.53-29.8 222.11-26.23 220.68-22.65 220.68-16.45L220.68-16.45Q220.68-10.3 222.03-6.73 223.38-3.15 225.71-1.63 228.03-0.1 230.93-0.1L230.93-0.1Q232.53-0.1 233.48-0.33 234.43-0.55 235.38-1L235.38-1Q236.33-1.4 236.83-2.18 237.33-2.95 237.73-3.85L237.73-3.85 239.93-8.75 240.43-8.75 240.28-1.6Q238.18-0.5 235.58 0.2 232.98 0.9 229.88 0.9ZM267.78 0L242.83 0 242.83-0.5 243.98-0.95Q244.83-1.3 245.15-1.88 245.48-2.45 245.48-3.45L245.48-3.45 245.48-29.55Q245.48-30.55 245.2-31.13 244.93-31.7 243.98-32.05L243.98-32.05 242.83-32.5 242.83-33 266.78-33 267.08-25.3 266.58-25.3 264.43-30Q263.98-30.9 263.48-31.45 262.98-32 261.98-32L261.98-32 252.98-32 252.98-17.55 258.33-17.55Q259.33-17.55 259.85-18.07 260.38-18.6 260.78-19.5L260.78-19.5 261.78-21.5 262.28-21.5 262.28-12.5 261.78-12.5 260.78-14.6Q260.33-15.5 259.83-16.03 259.33-16.55 258.33-16.55L258.33-16.55 252.98-16.55 252.98-1 263.08-1Q264.08-1 264.63-1.53 265.18-2.05 265.53-3L265.53-3 267.58-7.7 268.08-7.7 267.78 0ZM278.83 0L271.23 0 271.23-0.5 272.88-1Q273.78-1.25 274.18-1.98 274.58-2.7 274.58-3.7L274.58-3.7 274.58-27.75Q274.03-28.95 273.7-29.55 273.38-30.15 272.98-30.58 272.58-31 271.88-31.65L271.88-31.65 271.03-32.5 271.03-33 279.88-33 296.48-10.35 296.48-29.2Q296.48-30.2 296.15-31 295.83-31.8 294.83-32.05L294.83-32.05 293.18-32.5 293.18-33 300.33-33 300.33-32.5 298.98-32.05Q298.08-31.75 297.88-31 297.68-30.25 297.68-29.25L297.68-29.25 297.68 0.15 294.88 0.15 275.78-26.1 275.78-3.7Q275.78-2.7 276.08-2 276.38-1.3 277.33-1L277.33-1 278.83-0.5 278.83 0ZM325.67 0L309.92 0 309.92-0.5 311.97-1Q314.02-1.45 314.02-3.5L314.02-3.5 314.02-32 309.77-32Q307.92-32 307.12-31.03 306.32-30.05 305.42-28.35L305.42-28.35 303.62-24.85 303.12-24.85 303.37-33 332.22-33 332.42-24.85 331.92-24.85 330.12-28.35Q329.27-30.05 328.47-31.03 327.67-32 325.82-32L325.82-32 321.57-32 321.57-3.5Q321.57-1.45 323.62-1L323.62-1 325.67-0.5 325.67 0ZM359.52 0L334.57 0 334.57-0.5 335.72-0.95Q336.57-1.3 336.9-1.88 337.22-2.45 337.22-3.45L337.22-3.45 337.22-29.55Q337.22-30.55 336.95-31.13 336.67-31.7 335.72-32.05L335.72-32.05 334.57-32.5 334.57-33 358.52-33 358.82-25.3 358.32-25.3 356.17-30Q355.72-30.9 355.22-31.45 354.72-32 353.72-32L353.72-32 344.72-32 344.72-17.55 350.07-17.55Q351.07-17.55 351.6-18.07 352.12-18.6 352.52-19.5L352.52-19.5 353.52-21.5 354.02-21.5 354.02-12.5 353.52-12.5 352.52-14.6Q352.07-15.5 351.57-16.03 351.07-16.55 350.07-16.55L350.07-16.55 344.72-16.55 344.72-1 354.82-1Q355.82-1 356.37-1.53 356.92-2.05 357.27-3L357.27-3 359.32-7.7 359.82-7.7 359.52 0Z" opacity="1" transform="matrix(1,0,0,1,0,0)" fill="#636365" class="undefined-text-0" data-fill-palette-color="primary" id="text-0"></path></svg></g></svg></g><g transform="matrix(1,0,0,1,0,47.424303072602086)"><svg viewBox="0 0 232.209792 29.075914283198824" height="29.075914283198824" width="232.209792"><g transform="matrix(1,0,0,1,0,0)"><svg width="232.209792" viewBox="3.25 -36.5 299.4599914550781 37.5" height="29.075914283198824" data-palette-color="#89939e"><path d="M11.4-32.54L11.4-32.54 11.4-2.15Q12.72-1.98 13.94-1.89 15.16-1.81 16.33-1.81L16.33-1.81Q20.46-1.81 23.73-2.87 27-3.93 29.27-6.09 31.54-8.25 32.75-11.49 33.96-14.72 33.96-19.09L33.96-19.09Q33.94-21.97 33.23-24.19 32.52-26.42 31.25-28.06 29.98-29.71 28.26-30.82 26.54-31.93 24.52-32.63 22.51-33.33 20.28-33.62 18.04-33.91 15.75-33.91L15.75-33.91Q14.65-33.91 13.55-33.84 12.45-33.76 11.3-33.64L11.3-33.64Q11.35-33.3 11.38-33.02 11.4-32.74 11.4-32.54ZM3.34-33.74L3.25-34.45Q5.37-34.72 7.06-34.92 8.74-35.13 10.33-35.28 11.91-35.42 13.6-35.5 15.28-35.57 17.41-35.57L17.41-35.57Q19.24-35.57 20.75-35.47 22.27-35.38 23.62-35.14 24.98-34.91 26.28-34.53 27.59-34.16 29.03-33.62L29.03-33.62Q30.96-32.89 32.58-31.65 34.2-30.42 35.38-28.64 36.55-26.86 37.19-24.49 37.84-22.12 37.84-19.09L37.84-19.09Q37.82-15.5 36.91-12.7 36.01-9.89 34.4-7.76 32.79-5.64 30.58-4.15 28.37-2.66 25.78-1.73 23.19-0.81 20.31-0.39 17.43 0.02 14.48 0.02L14.48 0.02Q14.23 0.02 12.88 0.04 11.52 0.05 9.99 0.17 8.45 0.29 7.3 0.44L7.3 0.44 7.15 0.2Q7.64-0.51 7.64-2.39L7.64-2.39 7.64-28.1Q7.64-29.71 7.5-30.8 7.35-31.88 6.96-32.54 6.57-33.2 5.86-33.48 5.15-33.76 4.52-33.76 3.88-33.76 3.71-33.76 3.54-33.76 3.34-33.74L3.34-33.74ZM52.76-18.19L52.76-1.49 61.35-1.76Q63.13-1.81 64.35-2.17 65.57-2.54 66.45-3.21 67.33-3.88 67.99-4.87 68.65-5.86 69.31-7.15L69.31-7.15 70.02-6.86 67.6-0.34 67.21 0 49.46 0Q49-1 49-2.39L49-2.39 49-28.34Q49-29.96 48.85-30.99 48.7-32.03 48.31-32.65 47.92-33.28 47.23-33.52 46.53-33.76 45.43-33.76L45.43-33.76Q45.26-33.76 45.08-33.76 44.89-33.76 44.7-33.74L44.7-33.74 44.6-34.45Q51.56-35.55 59.93-35.55L59.93-35.55Q64.21-35.55 68.89-35.25L68.89-35.25 69.06-34.84 66.75-28.76 65.96-29Q66.16-29.93 66.26-30.71 66.35-31.49 66.35-32.24 66.35-32.98 66.16-33.64L66.16-33.64Q64.33-33.81 62.56-33.9 60.79-33.98 59.03-33.98L59.03-33.98Q55.83-33.98 52.76-33.69L52.76-33.69 52.76-19.9 66.11-20.63 66.35-20.36 65.21-18.36Q64.11-18.41 62.99-18.43 61.86-18.46 60.69-18.46L60.69-18.46Q58.79-18.46 56.81-18.38 54.83-18.31 52.76-18.19L52.76-18.19ZM91.69 0.49L91.69 0.49 89.74 0Q87.35-7.67 84.55-14.54 81.76-21.41 77.8-30L77.8-30Q77.05-31.69 76.24-32.42 75.43-33.15 74.57-33.15 73.7-33.15 72.5-33.06L72.5-33.06 72.26-33.54Q76.36-35.6 79.34-35.6L79.34-35.6Q80.66-33.01 81.86-30.41 83.05-27.81 84.38-24.58 85.71-21.36 86.4-19.67 87.08-17.97 88.68-13.87 90.28-9.77 90.69-8.69L90.69-8.69Q91.45-6.91 91.65-4.76L91.65-4.76 92.06-4.76Q92.13-4.93 92.6-6.47 93.06-8.01 93.7-9.55L93.7-9.55 102.8-32.59Q102.95-33.52 101.98-33.89 101.02-34.25 98.9-34.06L98.9-34.06 98.75-34.5Q101.9-35.4 105.49-35.4L105.49-35.4Q105.68-35.4 105.77-35.24 105.85-35.08 105.81-34.91L105.81-34.91Q105.54-34.01 105.23-33.06 104.93-32.1 91.69 0.49ZM117.84-18.19L117.84-1.49 126.43-1.76Q128.22-1.81 129.44-2.17 130.66-2.54 131.54-3.21 132.41-3.88 133.07-4.87 133.73-5.86 134.39-7.15L134.39-7.15 135.1-6.86 132.68-0.34 132.29 0 114.54 0Q114.08-1 114.08-2.39L114.08-2.39 114.08-28.34Q114.08-29.96 113.93-30.99 113.79-32.03 113.4-32.65 113.01-33.28 112.31-33.52 111.61-33.76 110.51-33.76L110.51-33.76Q110.34-33.76 110.16-33.76 109.98-33.76 109.78-33.74L109.78-33.74 109.68-34.45Q116.64-35.55 125.02-35.55L125.02-35.55Q129.29-35.55 133.98-35.25L133.98-35.25 134.15-34.84 131.83-28.76 131.05-29Q131.24-29.93 131.34-30.71 131.44-31.49 131.44-32.24 131.44-32.98 131.24-33.64L131.24-33.64Q129.41-33.81 127.64-33.9 125.87-33.98 124.11-33.98L124.11-33.98Q120.92-33.98 117.84-33.69L117.84-33.69 117.84-19.9 131.19-20.63 131.44-20.36 130.29-18.36Q129.19-18.41 128.07-18.43 126.95-18.46 125.77-18.46L125.77-18.46Q123.87-18.46 121.89-18.38 119.91-18.31 117.84-18.19L117.84-18.19ZM148.23-32.59L148.23-1.49 156.34-1.76Q158.12-1.81 159.37-2.16 160.61-2.51 161.51-3.28 162.42-4.05 162.99-4.9 163.56-5.74 164.27-7.15L164.27-7.15 164.98-6.86 162.59-0.34 162.17 0 144.94 0Q144.47-1.03 144.47-2.39L144.47-2.39 144.47-28.1Q144.47-31.54 143.65-32.74 142.84-33.94 140.18-33.74L140.18-33.74 140.08-34.2Q144.11-35.4 147.74-35.4L147.74-35.4Q148.23-34.06 148.23-32.59L148.23-32.59ZM187.83-36.5L187.83-36.5Q195.98-36.5 200.38-31.35 204.77-26.2 204.77-17.09L204.77-17.09Q204.77-13.23 203.41-9.84 202.04-6.45 199.72-4.08 197.4-1.71 194.26-0.35 191.13 1 187.68 1L187.68 1Q184.07 1 180.97-0.28 177.87-1.56 175.59-3.93 173.3-6.3 172.01-9.9 170.72-13.5 170.72-17.9L170.72-17.9Q170.72-21.78 172.09-25.24 173.47-28.71 175.78-31.16 178.09-33.62 181.24-35.06 184.39-36.5 187.83-36.5ZM174.82-18.14L174.82-18.14Q174.82-14.55 175.59-11.56 176.35-8.57 177.65-6.52 178.94-4.47 180.69-3.05 182.43-1.64 184.36-0.99 186.29-0.34 188.37-0.34L188.37-0.34Q191.37-0.34 193.75-1.66 196.13-2.98 197.62-5.26 199.11-7.54 199.89-10.5 200.67-13.45 200.67-16.85L200.67-16.85Q200.67-21.26 199.56-24.8 198.45-28.34 196.57-30.53 194.69-32.71 192.31-33.86 189.93-35.01 187.27-35.01L187.27-35.01Q184.26-35.01 181.86-33.63 179.46-32.25 177.94-29.91 176.43-27.56 175.62-24.55 174.82-21.53 174.82-18.14ZM219.66-32.1L219.66-32.1 219.66-4.39Q219.66-2.42 220.47-1.51 221.27-0.61 223.52-0.2L223.52-0.2 223.3 0.39Q220.52 0 218.91 0L218.91 0Q217.47 0 215.56 0.39L215.56 0.39 215.41 0.15Q215.9-0.56 215.9-2.44L215.9-2.44 215.9-28.1Q215.9-31.57 215.11-32.65 214.32-33.74 211.61-33.74L211.61-33.74 211.51-34.45Q218.3-35.45 222.42-35.45L222.42-35.45Q225.25-35.45 227.44-35.03 229.62-34.62 231.38-33.65 233.14-32.69 234.08-30.98 235.02-29.27 235.02-26.86L235.02-26.86Q235.02-24.19 233.3-22.01 231.58-19.82 229.03-18.69 226.47-17.55 223.81-17.55L223.81-17.55Q222.76-17.55 222.25-17.65L222.25-17.65 222.25-18.51Q224.11-18.51 225.68-18.99 227.26-19.48 228.49-20.46 229.72-21.44 230.42-23.03 231.11-24.63 231.11-26.71L231.11-26.71Q231.11-30.05 229.43-32.01 227.74-33.96 224.15-33.96L224.15-33.96Q221.52-33.96 219.52-33.64L219.52-33.64Q219.66-32.91 219.66-32.1ZM248.66-18.19L248.66-1.49 257.26-1.76Q259.04-1.81 260.26-2.17 261.48-2.54 262.36-3.21 263.24-3.88 263.9-4.87 264.56-5.86 265.22-7.15L265.22-7.15 265.92-6.86 263.51-0.34 263.12 0 245.37 0Q244.9-1 244.9-2.39L244.9-2.39 244.9-28.34Q244.9-29.96 244.76-30.99 244.61-32.03 244.22-32.65 243.83-33.28 243.13-33.52 242.44-33.76 241.34-33.76L241.34-33.76Q241.17-33.76 240.99-33.76 240.8-33.76 240.61-33.74L240.61-33.74 240.51-34.45Q247.47-35.55 255.84-35.55L255.84-35.55Q260.11-35.55 264.8-35.25L264.8-35.25 264.97-34.84 262.65-28.76 261.87-29Q262.07-29.93 262.17-30.71 262.26-31.49 262.26-32.24 262.26-32.98 262.07-33.64L262.07-33.64Q260.24-33.81 258.47-33.9 256.7-33.98 254.94-33.98L254.94-33.98Q251.74-33.98 248.66-33.69L248.66-33.69 248.66-19.9 262.02-20.63 262.26-20.36 261.12-18.36Q260.02-18.41 258.89-18.43 257.77-18.46 256.6-18.46L256.6-18.46Q254.69-18.46 252.72-18.38 250.74-18.31 248.66-18.19L248.66-18.19ZM281.55-18.99L281.55-18.99 281.55-19.8Q283.99-20.07 285.72-20.78 287.46-21.48 288.58-22.58 289.7-23.68 290.23-25.17 290.75-26.66 290.75-28.49L290.75-28.49Q290.68-29.96 290.32-30.96 289.97-31.96 289.14-32.58 288.31-33.2 286.93-33.48 285.55-33.76 283.43-33.76L283.43-33.76Q282.65-33.76 281.78-33.73 280.91-33.69 279.91-33.64L279.91-33.64Q280.06-33.06 280.06-32.4L280.06-32.4 280.06-4.39Q280.06-3.39 280.24-2.69 280.42-1.98 280.86-1.49 281.3-1 282.05-0.7 282.79-0.39 283.92-0.2L283.92-0.2 283.7 0.39Q282.21 0.2 281.13 0.1 280.06 0 279.35 0L279.35 0Q278.69 0 277.84 0.1 276.98 0.2 275.96 0.39L275.96 0.39 275.81 0.15Q276.3-0.56 276.3-2.44L276.3-2.44 276.3-28.1Q276.3-29.71 276.15-30.8 276.01-31.88 275.61-32.54 275.22-33.2 274.52-33.48 273.81-33.76 272-33.74L272-33.74 271.9-34.45Q273.54-34.67 274.8-34.84 276.05-35.01 277.19-35.14 278.32-35.28 279.44-35.38 280.55-35.47 281.57-35.53 282.6-35.6 283.22-35.62 283.84-35.64 284.4-35.64L284.4-35.64Q286.63-35.64 288.52-35.31 290.41-34.99 291.79-34.17 293.17-33.35 293.94-31.96 294.71-30.57 294.71-28.44L294.71-28.44Q294.71-26.86 294.01-25.44 293.31-24.02 292.13-22.85 290.95-21.68 289.37-20.79 287.8-19.9 286.02-19.36L286.02-19.36 286.02-19.09 295.95-4.91Q297.25-3.03 299.3-2L299.3-2Q301.3-1.15 301.73-1 302.15-0.85 302.71-0.66L302.71-0.66 302.71-0.2Q298.39-0.2 295.46 0.71L295.46 0.71 295.1 0.49Q295.1 0.15 294.68-0.52 294.27-1.2 293.67-2.04 293.07-2.88 291.53-5.09 289.99-7.3 281.55-18.99Z" opacity="1" transform="matrix(1,0,0,1,0,0)" fill="#89939e" class="undefined-text-1" data-fill-palette-color="secondary" id="text-1"></path></svg></g></svg></g></svg></g></svg></g><g><svg viewBox="0 0 105.72330038571687 105.72330038571687" height="105.72330038571687" width="105.72330038571687"><g><svg xmlns="http://www.w3.org/2000/svg" data-name="Layer 1" viewBox="0 0 128 128" x="0" y="0" height="105.72330038571687" width="105.72330038571687" class="icon-icon-0" data-fill-palette-color="accent" id="icon-0"><path d="M18.136 82.998c-4.542 11.393-4.679 20.969 0.609 26.257 2.711 2.711 6.544 3.998 11.174 3.998a41.839 41.839 0 0 0 15.084-3.387C49.847 121.133 56.521 128 64 128s14.153-6.867 18.997-18.135a41.841 41.841 0 0 0 15.084 3.387c4.628 0 8.464-1.287 11.174-3.997 5.288-5.288 5.151-14.864 0.609-26.257C121.132 78.154 128 71.479 128 64s-6.868-14.154-18.136-18.998c4.542-11.393 4.679-20.969-0.609-26.257C103.966 13.457 94.39 13.593 82.998 18.135 78.154 6.868 71.479 0 64 0 56.521 0 49.846 6.868 45.002 18.136c-11.392-4.542-20.968-4.679-26.257 0.609-5.288 5.288-5.151 14.864-0.609 26.257C6.868 49.846 0 56.521 0 64S6.868 78.154 18.136 82.998Zm3.437 23.429c-4.121-4.121-3.695-12.19 0.274-21.963a100.747 100.747 0 0 0 17.21 4.479A100.75 100.75 0 0 0 43.535 106.153C33.763 110.121 25.696 110.546 21.573 106.427Zm15.493-38.063Q35.315 66.18 33.71 64q1.604-2.179 3.356-4.364C37.027 61.078 37 62.53 37 64S37.027 66.922 37.066 68.364Zm-5.816-7.814a98.957 98.957 0 0 1-7.776-13.336A98.959 98.959 0 0 1 38.402 43.282q-0.656 4.687-1.012 9.696Q34.103 56.764 31.25 60.55ZM37.39 75.022q0.352 5.001 1.012 9.696a98.959 98.959 0 0 1-14.928-3.932 98.957 98.957 0 0 1 7.776-13.336Q34.1 71.228 37.39 75.022ZM47.736 47.736q3.382-3.382 6.856-6.436Q59.203 41.007 64 41q4.789 0 9.408 0.3 3.463 3.051 6.856 6.436 3.384 3.384 6.437 6.861Q86.993 59.206 87 64q0 4.786-0.299 9.403-3.052 3.465-6.437 6.861-3.384 3.384-6.861 6.437Q68.794 86.993 64 87q-4.786 0-9.403-0.299-3.465-3.052-6.861-6.437-3.384-3.384-6.437-6.861Q41.007 68.794 41 64q0-4.786 0.299-9.403Q44.352 51.131 47.736 47.736Zm-5.867 0.305q0.306-2.783 0.713-5.459 2.675-0.406 5.459-0.713c-1.048 0.992-2.093 1.999-3.133 3.039S42.862 46.993 41.869 48.041ZM59.625 37.067q2.189-1.756 4.375-3.361 2.184 1.608 4.375 3.361C66.929 37.027 65.474 37 64 37S61.071 37.027 59.625 37.067ZM79.959 41.869q2.783 0.306 5.459 0.713 0.406 2.675 0.713 5.459c-0.992-1.048-2-2.093-3.039-3.133S81.007 42.862 79.959 41.869Zm6.172 38.09q-0.306 2.783-0.713 5.459-2.672 0.406-5.453 0.712 1.569-1.486 3.127-3.038C84.131 82.052 85.138 81.007 86.131 79.959ZM68.364 90.934q-2.184 1.752-4.364 3.357-2.179-1.604-4.365-3.357C61.078 90.973 62.53 91 64 91S66.922 90.973 68.364 90.934ZM48.035 86.13q-2.78-0.306-5.453-0.712-0.406-2.675-0.713-5.459c0.992 1.048 2 2.093 3.039 3.133Q46.465 84.648 48.035 86.13Zm-4.753 3.468q4.685 0.655 9.691 1.012 3.786 3.288 7.573 6.143a98.939 98.939 0 0 1-13.332 7.773A98.957 98.957 0 0 1 43.282 89.598ZM64 124c-5.827 0-11.23-6.004-15.334-15.718a100.87 100.87 0 0 0 15.334-9.011 100.857 100.857 0 0 0 15.335 9.01C75.231 117.996 69.827 124 64 124Zm16.786-19.473A98.95 98.95 0 0 1 67.454 96.753q3.778-2.851 7.574-6.143 4.998-0.352 9.69-1.012A98.956 98.956 0 0 1 80.786 104.527Zm25.641 1.9c-4.121 4.122-12.19 3.696-21.963-0.273a100.752 100.752 0 0 0 4.479-17.211 100.747 100.747 0 0 0 17.21-4.479C110.122 94.237 110.547 102.306 106.427 106.427ZM90.934 59.636Q92.685 61.82 94.29 64q-1.604 2.179-3.356 4.364C90.973 66.922 91 65.47 91 64S90.973 61.078 90.934 59.636ZM90.61 52.978q-0.352-5.001-1.012-9.696a98.959 98.959 0 0 1 14.928 3.932 98.957 98.957 0 0 1-7.776 13.336Q93.9 56.772 90.61 52.978Zm0 22.044q3.287-3.785 6.14-7.572a98.957 98.957 0 0 1 7.776 13.336A98.959 98.959 0 0 1 89.598 84.718Q90.254 80.031 90.61 75.022ZM124 64c0 5.828-6.006 11.232-15.723 15.336A100.743 100.743 0 0 0 99.274 64 100.743 100.743 0 0 0 108.277 48.664C117.994 52.768 124 58.172 124 64ZM98.044 18.67c3.534 0 6.41 0.932 8.383 2.903 4.121 4.121 3.695 12.19-0.273 21.963a100.747 100.747 0 0 0-17.211-4.479 100.75 100.75 0 0 0-4.479-17.211A37.466 37.466 0 0 1 98.044 18.67ZM84.718 38.402q-4.687-0.656-9.696-1.012-3.784-3.286-7.569-6.138a99.022 99.022 0 0 1 13.333-7.779A98.949 98.949 0 0 1 84.718 38.402ZM64 4c5.828 0 11.232 6.006 15.336 15.722a100.746 100.746 0 0 0-15.337 9.004A100.755 100.755 0 0 0 48.664 19.723C52.768 10.006 58.172 4 64 4ZM47.214 23.474a99.029 99.029 0 0 1 13.333 7.778q-3.777 2.85-7.569 6.138-5.001 0.352-9.696 1.012A98.954 98.954 0 0 1 47.214 23.474ZM21.573 21.573c1.973-1.973 4.848-2.903 8.383-2.903a37.465 37.465 0 0 1 13.58 3.176 100.749 100.749 0 0 0-4.479 17.211A100.747 100.747 0 0 0 21.846 43.536C17.878 33.763 17.453 25.694 21.573 21.573ZM19.723 48.664A100.743 100.743 0 0 0 28.726 64 100.743 100.743 0 0 0 19.723 79.336C10.006 75.232 4 69.828 4 64S10.006 52.768 19.723 48.664Z" fill="#89939e" data-fill-palette-color="accent"></path><path d="M64 81A17 17 0 1 0 47 64 17.019 17.019 0 0 0 64 81Zm0-30A13 13 0 1 1 51 64 13.015 13.015 0 0 1 64 51Z" fill="#89939e" data-fill-palette-color="accent"></path><path d="M64 72a8 8 0 1 0-8-8A8.009 8.009 0 0 0 64 72Zm0-12a4 4 0 1 1-4 4A4.004 4.004 0 0 1 64 60Z" fill="#89939e" data-fill-palette-color="accent"></path></svg></g></svg></g></svg></g><defs></defs></svg><rect width="395.52" height="79.98129637681704" fill="none" stroke="none" visibility="hidden"></rect></g></svg></g></svg>